<svg width="1440" height="700" viewBox="0 0 1440 700" fill="none" xmlns="http://www.w3.org/2000/svg">
<rect y="622" width="20" height="78" fill="url(#paint0_linear_201_8)"/>
<rect x="0.5" y="622.5" width="19" height="77" stroke="black" stroke-opacity="0.75"/>
<rect x="25" y="583" width="20" height="117" fill="url(#paint1_linear_201_8)"/>
<rect x="25.5" y="583.5" width="19" height="116" stroke="black" stroke-opacity="0.75"/>
<rect x="50" y="563" width="20" height="137" fill="url(#paint2_linear_201_8)"/>
<rect x="50.5" y="563.5" width="19" height="136" stroke="black" stroke-opacity="0.75"/>
<rect x="75" y="561" width="20" height="139" fill="url(#paint3_linear_201_8)"/>
<rect x="75.5" y="561.5" width="19" height="138" stroke="black" stroke-opacity="0.75"/>
<rect x="100" y="561" width="20" height="139" fill="url(#paint4_linear_201_8)"/>
<rect x="100.5" y="561.5" width="19" height="138" stroke="black" stroke-opacity="0.75"/>
<rect x="125" y="544" width="20" height="156" fill="url(#paint5_linear_201_8)"/>
<rect x="125.5" y="544.5" width="19" height="155" stroke="black" stroke-opacity="0.75"/>
<rect x="150" y="522" width="20" height="178" fill="url(#paint6_linear_201_8)"/>
<rect x="150.5" y="522.5" width="19" height="177" stroke="black" stroke-opacity="0.75"/>
<rect x="175" y="526" width="20" height="174" fill="url(#paint7_linear_201_8)"/>
<rect x="175.5" y="526.5" width="19" height="173" stroke="black" stroke-opacity="0.75"/>
<rect x="200" y="561" width="20" height="139" fill="url(#paint8_linear_201_8)"/>
<rect x="200.5" y="561.5" width="19" height="138" stroke="black" stroke-opacity="0.75"/>
<rect x="225" y="598" width="20" height="102" fill="url(#paint9_linear_201_8)"/>
<rect x="225.5" y="598.5" width="19" height="101" stroke="black" stroke-opacity="0.75"/>
<rect x="250" y="618" width="20" height="82" fill="url(#paint10_linear_201_8)"/>
<rect x="250.5" y="618.5" width="19" height="81" stroke="black" stroke-opacity="0.75"/>
<rect x="275" y="609" width="20" height="91" fill="url(#paint11_linear_201_8)"/>
<rect x="275.5" y="609.5" width="19" height="90" stroke="black" stroke-opacity="0.75"/>
<rect x="300" y="578" width="20" height="122" fill="url(#paint12_linear_201_8)"/>
<rect x="300.5" y="578.5" width="19" height="121" stroke="black" stroke-opacity="0.75"/>
<rect x="325" y="526" width="20" height="174" fill="url(#paint13_linear_201_8)"/>
<rect x="325.5" y="526.5" width="19" height="173" stroke="black" stroke-opacity="0.75"/>
<rect x="350" y="484" width="20" height="216" fill="url(#paint14_linear_201_8)"/>
<rect x="350.5" y="484.5" width="19" height="215" stroke="black" stroke-opacity="0.75"/>
<rect x="375" y="470" width="20" height="230" fill="url(#paint15_linear_201_8)"/>
<rect x="375.5" y="470.5" width="19" height="229" stroke="black" stroke-opacity="0.75"/>
<rect x="400" y="479" width="20" height="221" fill="url(#paint16_linear_201_8)"/>
<rect x="400.5" y="479.5" width="19" height="220" stroke="black" stroke-opacity="0.75"/>
<rect x="425" y="501" width="20" height="199" fill="url(#paint17_linear_201_8)"/>
<rect x="425.5" y="501.5" width="19" height="198" stroke="black" stroke-opacity="0.75"/>
<rect x="450" y="526" width="20" height="174" fill="url(#paint18_linear_201_8)"/>
<rect x="450.5" y="526.5" width="19" height="173" stroke="black" stroke-opacity="0.75"/>
<rect x="475" y="526" width="20" height="174" fill="url(#paint19_linear_201_8)"/>
<rect x="475.5" y="526.5" width="19" height="173" stroke="black" stroke-opacity="0.75"/>
<rect x="500" y="501" width="20" height="199" fill="url(#paint20_linear_201_8)"/>
<rect x="500.5" y="501.5" width="19" height="198" stroke="black" stroke-opacity="0.75"/>
<rect x="525" y="463" width="20" height="237" fill="url(#paint21_linear_201_8)"/>
<rect x="525.5" y="463.5" width="19" height="236" stroke="black" stroke-opacity="0.75"/>
<rect x="550" y="430" width="20" height="270" fill="url(#paint22_linear_201_8)"/>
<rect x="550.5" y="430.5" width="19" height="269" stroke="black" stroke-opacity="0.75"/>
<rect x="575" y="405" width="20" height="295" fill="url(#paint23_linear_201_8)"/>
<rect x="575.5" y="405.5" width="19" height="294" stroke="black" stroke-opacity="0.75"/>
<rect x="600" y="390" width="20" height="310" fill="url(#paint24_linear_201_8)"/>
<rect x="600.5" y="390.5" width="19" height="309" stroke="black" stroke-opacity="0.75"/>
<rect x="625" y="383" width="20" height="317" fill="url(#paint25_linear_201_8)"/>
<rect x="625.5" y="383.5" width="19" height="316" stroke="black" stroke-opacity="0.75"/>
<rect x="650" y="383" width="20" height="317" fill="url(#paint26_linear_201_8)"/>
<rect x="650.5" y="383.5" width="19" height="316" stroke="black" stroke-opacity="0.75"/>
<rect x="675" y="392" width="20" height="308" fill="url(#paint27_linear_201_8)"/>
<rect x="675.5" y="392.5" width="19" height="307" stroke="black" stroke-opacity="0.75"/>
<rect x="700" y="403" width="21" height="297" fill="url(#paint28_linear_201_8)"/>
<rect x="700.5" y="403.5" width="20" height="296" stroke="black" stroke-opacity="0.75"/>
<rect x="726" y="419" width="20" height="281" fill="url(#paint29_linear_201_8)"/>
<rect x="726.5" y="419.5" width="19" height="280" stroke="black" stroke-opacity="0.75"/>
<rect x="751" y="437" width="20" height="263" fill="url(#paint30_linear_201_8)"/>
<rect x="751.5" y="437.5" width="19" height="262" stroke="black" stroke-opacity="0.75"/>
<rect x="776" y="447" width="20" height="253" fill="url(#paint31_linear_201_8)"/>
<rect x="776.5" y="447.5" width="19" height="252" stroke="black" stroke-opacity="0.75"/>
<rect x="801" y="444" width="20" height="256" fill="url(#paint32_linear_201_8)"/>
<rect x="801.5" y="444.5" width="19" height="255" stroke="black" stroke-opacity="0.75"/>
<rect x="826" y="431" width="20" height="269" fill="url(#paint33_linear_201_8)"/>
<rect x="826.5" y="431.5" width="19" height="268" stroke="black" stroke-opacity="0.75"/>
<rect x="851" y="404" width="20" height="296" fill="url(#paint34_linear_201_8)"/>
<rect x="851.5" y="404.5" width="19" height="295" stroke="black" stroke-opacity="0.75"/>
<rect x="876" y="369" width="20" height="331" fill="url(#paint35_linear_201_8)"/>
<rect x="876.5" y="369.5" width="19" height="330" stroke="black" stroke-opacity="0.75"/>
<rect x="901" y="331" width="20" height="369" fill="url(#paint36_linear_201_8)"/>
<rect x="901.5" y="331.5" width="19" height="368" stroke="black" stroke-opacity="0.75"/>
<rect x="926" y="292" width="20" height="408" fill="url(#paint37_linear_201_8)"/>
<rect x="926.5" y="292.5" width="19" height="407" stroke="black" stroke-opacity="0.75"/>
<rect x="951" y="268" width="20" height="432" fill="url(#paint38_linear_201_8)"/>
<rect x="951.5" y="268.5" width="19" height="431" stroke="black" stroke-opacity="0.75"/>
<rect x="976" y="264" width="20" height="436" fill="url(#paint39_linear_201_8)"/>
<rect x="976.5" y="264.5" width="19" height="435" stroke="black" stroke-opacity="0.75"/>
<rect x="1001" y="281" width="20" height="419" fill="url(#paint40_linear_201_8)"/>
<rect x="1001.5" y="281.5" width="19" height="418" stroke="black" stroke-opacity="0.75"/>
<rect x="1026" y="305" width="20" height="395" fill="url(#paint41_linear_201_8)"/>
<rect x="1026.5" y="305.5" width="19" height="394" stroke="black" stroke-opacity="0.75"/>
<rect x="1051" y="324" width="20" height="376" fill="url(#paint42_linear_201_8)"/>
<rect x="1051.5" y="324.5" width="19" height="375" stroke="black" stroke-opacity="0.75"/>
<rect x="1076" y="326" width="20" height="374" fill="url(#paint43_linear_201_8)"/>
<rect x="1076.5" y="326.5" width="19" height="373" stroke="black" stroke-opacity="0.75"/>
<rect x="1101" y="301" width="20" height="399" fill="url(#paint44_linear_201_8)"/>
<rect x="1101.5" y="301.5" width="19" height="398" stroke="black" stroke-opacity="0.75"/>
<rect x="1126" y="279" width="20" height="421" fill="url(#paint45_linear_201_8)"/>
<rect x="1126.5" y="279.5" width="19" height="420" stroke="black" stroke-opacity="0.75"/>
<rect x="1151" y="284" width="20" height="416" fill="url(#paint46_linear_201_8)"/>
<rect x="1151.5" y="284.5" width="19" height="415" stroke="black" stroke-opacity="0.75"/>
<rect x="1176" y="296" width="20" height="404" fill="url(#paint47_linear_201_8)"/>
<rect x="1176.5" y="296.5" width="19" height="403" stroke="black" stroke-opacity="0.75"/>
<rect x="1201" y="288" width="20" height="412" fill="url(#paint48_linear_201_8)"/>
<rect x="1201.5" y="288.5" width="19" height="411" stroke="black" stroke-opacity="0.75"/>
<rect x="1226" y="263" width="20" height="437" fill="url(#paint49_linear_201_8)"/>
<rect x="1226.5" y="263.5" width="19" height="436" stroke="black" stroke-opacity="0.75"/>
<rect x="1251" y="239" width="20" height="461" fill="url(#paint50_linear_201_8)"/>
<rect x="1251.5" y="239.5" width="19" height="460" stroke="black" stroke-opacity="0.75"/>
<rect x="1276" y="231" width="20" height="469" fill="url(#paint51_linear_201_8)"/>
<rect x="1276.5" y="231.5" width="19" height="468" stroke="black" stroke-opacity="0.75"/>
<rect x="1301" y="234" width="20" height="466" fill="url(#paint52_linear_201_8)"/>
<rect x="1301.5" y="234.5" width="19" height="465" stroke="black" stroke-opacity="0.75"/>
<rect x="1326" y="234" width="20" height="466" fill="url(#paint53_linear_201_8)"/>
<rect x="1326.5" y="234.5" width="19" height="465" stroke="black" stroke-opacity="0.75"/>
<rect x="1351" y="226" width="20" height="474" fill="url(#paint54_linear_201_8)"/>
<rect x="1351.5" y="226.5" width="19" height="473" stroke="black" stroke-opacity="0.75"/>
<rect x="1376" y="197" width="20" height="503" fill="url(#paint55_linear_201_8)"/>
<rect x="1376.5" y="197.5" width="19" height="502" stroke="black" stroke-opacity="0.75"/>
<rect x="1401" y="158" width="20" height="542" fill="url(#paint56_linear_201_8)"/>
<rect x="1401.5" y="158.5" width="19" height="541" stroke="black" stroke-opacity="0.75"/>
<rect x="1426" y="127" width="20" height="573" fill="url(#paint57_linear_201_8)"/>
<rect x="1426.5" y="127.5" width="19" height="572" stroke="black" stroke-opacity="0.75"/>
<defs>
<linearGradient id="paint0_linear_201_8" x1="10" y1="622" x2="10" y2="700" gradientUnits="userSpaceOnUse">
<stop stop-color="#FFDA17"/>
<stop offset="1" stop-color="#FFE660"/>
</linearGradient>
<linearGradient id="paint1_linear_201_8" x1="35" y1="583" x2="35" y2="700" gradientUnits="userSpaceOnUse">
<stop stop-color="#FFDA17"/>
<stop offset="1" stop-color="#FFE660"/>
</linearGradient>
<linearGradient id="paint2_linear_201_8" x1="60" y1="563" x2="60" y2="700" gradientUnits="userSpaceOnUse">
<stop stop-color="#FFDA17"/>
<stop offset="1" stop-color="#FFE660"/>
</linearGradient>
<linearGradient id="paint3_linear_201_8" x1="85" y1="561" x2="85" y2="700" gradientUnits="userSpaceOnUse">
<stop stop-color="#FFDA17"/>
<stop offset="1" stop-color="#FFE660"/>
</linearGradient>
<linearGradient id="paint4_linear_201_8" x1="110" y1="561" x2="110" y2="700" gradientUnits="userSpaceOnUse">
<stop stop-color="#FFDA17"/>
<stop offset="1" stop-color="#FFE660"/>
</linearGradient>
<linearGradient id="paint5_linear_201_8" x1="135" y1="544" x2="135" y2="700" gradientUnits="userSpaceOnUse">
<stop stop-color="#FFDA17"/>
<stop offset="1" stop-color="#FFE660"/>
</linearGradient>
<linearGradient id="paint6_linear_201_8" x1="160" y1="522" x2="160" y2="700" gradientUnits="userSpaceOnUse">
<stop stop-color="#FFDA17"/>
<stop offset="1" stop-color="#FFE660"/>
</linearGradient>
<linearGradient id="paint7_linear_201_8" x1="185" y1="526" x2="185" y2="700" gradientUnits="userSpaceOnUse">
<stop stop-color="#FFDA17"/>
<stop offset="1" stop-color="#FFE660"/>
</linearGradient>
<linearGradient id="paint8_linear_201_8" x1="210" y1="561" x2="210" y2="700" gradientUnits="userSpaceOnUse">
<stop stop-color="#FFDA17"/>
<stop offset="1" stop-color="#FFE660"/>
</linearGradient>
<linearGradient id="paint9_linear_201_8" x1="235" y1="598" x2="235" y2="700" gradientUnits="userSpaceOnUse">
<stop stop-color="#FFDA17"/>
<stop offset="1" stop-color="#FFE660"/>
</linearGradient>
<linearGradient id="paint10_linear_201_8" x1="260" y1="618" x2="260" y2="700" gradientUnits="userSpaceOnUse">
<stop stop-color="#FFDA17"/>
<stop offset="1" stop-color="#FFE660"/>
</linearGradient>
<linearGradient id="paint11_linear_201_8" x1="285" y1="609" x2="285" y2="700" gradientUnits="userSpaceOnUse">
<stop stop-color="#FFDA17"/>
<stop offset="1" stop-color="#FFE660"/>
</linearGradient>
<linearGradient id="paint12_linear_201_8" x1="310" y1="578" x2="310" y2="700" gradientUnits="userSpaceOnUse">
<stop stop-color="#FFDA17"/>
<stop offset="1" stop-color="#FFE660"/>
</linearGradient>
<linearGradient id="paint13_linear_201_8" x1="335" y1="526" x2="335" y2="700" gradientUnits="userSpaceOnUse">
<stop stop-color="#FFDA17"/>
<stop offset="1" stop-color="#FFE660"/>
</linearGradient>
<linearGradient id="paint14_linear_201_8" x1="360" y1="484" x2="360" y2="700" gradientUnits="userSpaceOnUse">
<stop stop-color="#FFDA17"/>
<stop offset="1" stop-color="#FFE660"/>
</linearGradient>
<linearGradient id="paint15_linear_201_8" x1="385" y1="470" x2="385" y2="700" gradientUnits="userSpaceOnUse">
<stop stop-color="#FFDA17"/>
<stop offset="1" stop-color="#FFE660"/>
</linearGradient>
<linearGradient id="paint16_linear_201_8" x1="410" y1="479" x2="410" y2="700" gradientUnits="userSpaceOnUse">
<stop stop-color="#FFDA17"/>
<stop offset="1" stop-color="#FFE660"/>
</linearGradient>
<linearGradient id="paint17_linear_201_8" x1="435" y1="501" x2="435" y2="700" gradientUnits="userSpaceOnUse">
<stop stop-color="#FFDA17"/>
<stop offset="1" stop-color="#FFE660"/>
</linearGradient>
<linearGradient id="paint18_linear_201_8" x1="460" y1="526" x2="460" y2="700" gradientUnits="userSpaceOnUse">
<stop stop-color="#FFDA17"/>
<stop offset="1" stop-color="#FFE660"/>
</linearGradient>
<linearGradient id="paint19_linear_201_8" x1="485" y1="526" x2="485" y2="700" gradientUnits="userSpaceOnUse">
<stop stop-color="#FFDA17"/>
<stop offset="1" stop-color="#FFE660"/>
</linearGradient>
<linearGradient id="paint20_linear_201_8" x1="510" y1="501" x2="510" y2="700" gradientUnits="userSpaceOnUse">
<stop stop-color="#FFDA17"/>
<stop offset="1" stop-color="#FFE660"/>
</linearGradient>
<linearGradient id="paint21_linear_201_8" x1="535" y1="463" x2="535" y2="700" gradientUnits="userSpaceOnUse">
<stop stop-color="#FFDA17"/>
<stop offset="1" stop-color="#FFE660"/>
</linearGradient>
<linearGradient id="paint22_linear_201_8" x1="560" y1="430" x2="560" y2="700" gradientUnits="userSpaceOnUse">
<stop stop-color="#FFDA17"/>
<stop offset="1" stop-color="#FFE660"/>
</linearGradient>
<linearGradient id="paint23_linear_201_8" x1="585" y1="405" x2="585" y2="700" gradientUnits="userSpaceOnUse">
<stop stop-color="#FFDA17"/>
<stop offset="1" stop-color="#FFE660"/>
</linearGradient>
<linearGradient id="paint24_linear_201_8" x1="610" y1="390" x2="610" y2="700" gradientUnits="userSpaceOnUse">
<stop stop-color="#FFDA17"/>
<stop offset="1" stop-color="#FFE660"/>
</linearGradient>
<linearGradient id="paint25_linear_201_8" x1="635" y1="383" x2="635" y2="700" gradientUnits="userSpaceOnUse">
<stop stop-color="#FFDA17"/>
<stop offset="1" stop-color="#FFE660"/>
</linearGradient>
<linearGradient id="paint26_linear_201_8" x1="660" y1="383" x2="660" y2="700" gradientUnits="userSpaceOnUse">
<stop stop-color="#FFDA17"/>
<stop offset="1" stop-color="#FFE660"/>
</linearGradient>
<linearGradient id="paint27_linear_201_8" x1="685" y1="392" x2="685" y2="700" gradientUnits="userSpaceOnUse">
<stop stop-color="#FFDA17"/>
<stop offset="1" stop-color="#FFE660"/>
</linearGradient>
<linearGradient id="paint28_linear_201_8" x1="710.5" y1="403" x2="710.5" y2="700" gradientUnits="userSpaceOnUse">
<stop stop-color="#FFDA17"/>
<stop offset="1" stop-color="#FFE660"/>
</linearGradient>
<linearGradient id="paint29_linear_201_8" x1="736" y1="419" x2="736" y2="700" gradientUnits="userSpaceOnUse">
<stop stop-color="#FFDA17"/>
<stop offset="1" stop-color="#FFE660"/>
</linearGradient>
<linearGradient id="paint30_linear_201_8" x1="761" y1="437" x2="761" y2="700" gradientUnits="userSpaceOnUse">
<stop stop-color="#FFDA17"/>
<stop offset="1" stop-color="#FFE660"/>
</linearGradient>
<linearGradient id="paint31_linear_201_8" x1="786" y1="447" x2="786" y2="700" gradientUnits="userSpaceOnUse">
<stop stop-color="#FFDA17"/>
<stop offset="1" stop-color="#FFE660"/>
</linearGradient>
<linearGradient id="paint32_linear_201_8" x1="811" y1="444" x2="811" y2="700" gradientUnits="userSpaceOnUse">
<stop stop-color="#FFDA17"/>
<stop offset="1" stop-color="#FFE660"/>
</linearGradient>
<linearGradient id="paint33_linear_201_8" x1="836" y1="431" x2="836" y2="700" gradientUnits="userSpaceOnUse">
<stop stop-color="#FFDA17"/>
<stop offset="1" stop-color="#FFE660"/>
</linearGradient>
<linearGradient id="paint34_linear_201_8" x1="861" y1="404" x2="861" y2="700" gradientUnits="userSpaceOnUse">
<stop stop-color="#FFDA17"/>
<stop offset="1" stop-color="#FFE660"/>
</linearGradient>
<linearGradient id="paint35_linear_201_8" x1="886" y1="369" x2="886" y2="700" gradientUnits="userSpaceOnUse">
<stop stop-color="#FFDA17"/>
<stop offset="1" stop-color="#FFE660"/>
</linearGradient>
<linearGradient id="paint36_linear_201_8" x1="911" y1="331" x2="911" y2="700" gradientUnits="userSpaceOnUse">
<stop stop-color="#FFDA17"/>
<stop offset="1" stop-color="#FFE660"/>
</linearGradient>
<linearGradient id="paint37_linear_201_8" x1="936" y1="292" x2="936" y2="700" gradientUnits="userSpaceOnUse">
<stop stop-color="#FFDA17"/>
<stop offset="1" stop-color="#FFE660"/>
</linearGradient>
<linearGradient id="paint38_linear_201_8" x1="961" y1="268" x2="961" y2="700" gradientUnits="userSpaceOnUse">
<stop stop-color="#FFDA17"/>
<stop offset="1" stop-color="#FFE660"/>
</linearGradient>
<linearGradient id="paint39_linear_201_8" x1="986" y1="264" x2="986" y2="700" gradientUnits="userSpaceOnUse">
<stop stop-color="#FFDA17"/>
<stop offset="1" stop-color="#FFE660"/>
</linearGradient>
<linearGradient id="paint40_linear_201_8" x1="1011" y1="281" x2="1011" y2="700" gradientUnits="userSpaceOnUse">
<stop stop-color="#FFDA17"/>
<stop offset="1" stop-color="#FFE660"/>
</linearGradient>
<linearGradient id="paint41_linear_201_8" x1="1036" y1="305" x2="1036" y2="700" gradientUnits="userSpaceOnUse">
<stop stop-color="#FFDA17"/>
<stop offset="1" stop-color="#FFE660"/>
</linearGradient>
<linearGradient id="paint42_linear_201_8" x1="1061" y1="324" x2="1061" y2="700" gradientUnits="userSpaceOnUse">
<stop stop-color="#FFDA17"/>
<stop offset="1" stop-color="#FFE660"/>
</linearGradient>
<linearGradient id="paint43_linear_201_8" x1="1086" y1="326" x2="1086" y2="700" gradientUnits="userSpaceOnUse">
<stop stop-color="#FFDA17"/>
<stop offset="1" stop-color="#FFE660"/>
</linearGradient>
<linearGradient id="paint44_linear_201_8" x1="1111" y1="301" x2="1111" y2="700" gradientUnits="userSpaceOnUse">
<stop stop-color="#FFDA17"/>
<stop offset="1" stop-color="#FFE660"/>
</linearGradient>
<linearGradient id="paint45_linear_201_8" x1="1136" y1="279" x2="1136" y2="700" gradientUnits="userSpaceOnUse">
<stop stop-color="#FFDA17"/>
<stop offset="1" stop-color="#FFE660"/>
</linearGradient>
<linearGradient id="paint46_linear_201_8" x1="1161" y1="284" x2="1161" y2="700" gradientUnits="userSpaceOnUse">
<stop stop-color="#FFDA17"/>
<stop offset="1" stop-color="#FFE660"/>
</linearGradient>
<linearGradient id="paint47_linear_201_8" x1="1186" y1="296" x2="1186" y2="700" gradientUnits="userSpaceOnUse">
<stop stop-color="#FFDA17"/>
<stop offset="1" stop-color="#FFE660"/>
</linearGradient>
<linearGradient id="paint48_linear_201_8" x1="1211" y1="288" x2="1211" y2="700" gradientUnits="userSpaceOnUse">
<stop stop-color="#FFDA17"/>
<stop offset="1" stop-color="#FFE660"/>
</linearGradient>
<linearGradient id="paint49_linear_201_8" x1="1236" y1="263" x2="1236" y2="700" gradientUnits="userSpaceOnUse">
<stop stop-color="#FFDA17"/>
<stop offset="1" stop-color="#FFE660"/>
</linearGradient>
<linearGradient id="paint50_linear_201_8" x1="1261" y1="239" x2="1261" y2="700" gradientUnits="userSpaceOnUse">
<stop stop-color="#FFDA17"/>
<stop offset="1" stop-color="#FFE660"/>
</linearGradient>
<linearGradient id="paint51_linear_201_8" x1="1286" y1="231" x2="1286" y2="700" gradientUnits="userSpaceOnUse">
<stop stop-color="#FFDA17"/>
<stop offset="1" stop-color="#FFE660"/>
</linearGradient>
<linearGradient id="paint52_linear_201_8" x1="1311" y1="234" x2="1311" y2="700" gradientUnits="userSpaceOnUse">
<stop stop-color="#FFDA17"/>
<stop offset="1" stop-color="#FFE660"/>
</linearGradient>
<linearGradient id="paint53_linear_201_8" x1="1336" y1="234" x2="1336" y2="700" gradientUnits="userSpaceOnUse">
<stop stop-color="#FFDA17"/>
<stop offset="1" stop-color="#FFE660"/>
</linearGradient>
<linearGradient id="paint54_linear_201_8" x1="1361" y1="226" x2="1361" y2="700" gradientUnits="userSpaceOnUse">
<stop stop-color="#FFDA17"/>
<stop offset="1" stop-color="#FFE660"/>
</linearGradient>
<linearGradient id="paint55_linear_201_8" x1="1386" y1="197" x2="1386" y2="700" gradientUnits="userSpaceOnUse">
<stop stop-color="#FFDA17"/>
<stop offset="1" stop-color="#FFE660"/>
</linearGradient>
<linearGradient id="paint56_linear_201_8" x1="1411" y1="158" x2="1411" y2="700" gradientUnits="userSpaceOnUse">
<stop stop-color="#FFDA17"/>
<stop offset="1" stop-color="#FFE660"/>
</linearGradient>
<linearGradient id="paint57_linear_201_8" x1="1436" y1="127" x2="1436" y2="700" gradientUnits="userSpaceOnUse">
<stop stop-color="#FFDA17"/>
<stop offset="1" stop-color="#FFE660"/>
</linearGradient>
</defs>
</svg>
