<?xml version="1.0" encoding="utf-8"?>
<svg version="1.1" id="logo" xmlns="http://www.w3.org/2000/svg" xmlns:xlink="http://www.w3.org/1999/xlink" x="0px" y="0px"
	 viewBox="0 0 500 500" style="enable-background:new 0 0 500 500;" xml:space="preserve">
<g>
	<path d="M478.51,304.95c-5.28,14.65-22.68,59.49-70.49,87.16c-30.27,17.52-59.61,20.52-76.25,20.82c-11.76,0-23.52,0-35.27,0
		c-2.14-4.18-4.28-8.45-6.41-12.78c-2.65-5.39-5.2-10.72-7.65-15.99c16.87,0,33.75,0,50.62,0c66.22-12.4,116.08-59.59,124.6-115.56
		c7.51-49.32-19.61-88.84-23.06-93.71c-25.91-36.59-63.08-48.14-77.76-52.7c-16.89-5.25-31.73-6.79-42.26-7.18
		c-13.69,0-27.39,0-41.08,0c-4.9-9.38-9.8-18.75-14.7-28.13c23,0,46,0,69,0c14.84,1.51,36.9,5.45,61.37,16.54
		c13.92,6.31,34.32,16.15,53.91,36.45c5.12,5.31,27.71,29.36,39.13,68.78c4.38,15.12,5.9,28.29,6.43,37.74
		C488.63,260.09,487.09,281.17,478.51,304.95z"/>
	<path d="M297.94,355.41c-9.22,0.42-18.44,0.84-27.66,1.26C235.97,285,201.66,213.33,167.35,141.66
		c-42.64,90.49-85.28,180.98-127.92,271.46c-8.12,0-16.84,0-28.04,0C63.38,304.37,115.36,195.63,167.35,86.88
		C210.88,176.39,254.41,265.9,297.94,355.41z"/>
	<path d="M109.17,335.57c3.84-9.8,7.67-19.61,11.51-29.41c30.05,0,60.1,0,90.14,0c4.48,9.8,8.95,19.61,13.43,29.41
		C185.89,335.57,147.53,335.57,109.17,335.57z" fill="#FFD700"/>
	<path d="M244.7,115.01c-9.8,0-19.61,0-29.41,0c-5.11-9.38-10.23-18.75-15.34-28.13c10.44,0,20.88,0,31.33,0
		C235.75,96.26,240.23,105.63,244.7,115.01z" fill="#FFD700"/>
</g>
</svg>
