<svg width="100" height="80" viewBox="0 0 100 80" fill="none" xmlns="http://www.w3.org/2000/svg">
<g id="Group 5">
<path id="Rectangle 19" d="M64.8716 71.5148L37.9454 14.5H68.7149C84.4591 14.5 97.2222 27.2632 97.2222 43.0074C97.2222 58.7516 84.459 71.5148 68.7148 71.5148H64.8716Z" stroke="black" stroke-width="5" stroke-linejoin="round"/>
<path id="Polygon 6" d="M40.2441 10.9057L37.989 6.27366L35.7457 10.9114L5.74945 72.9262L4.01367 76.5148H8H13.3926H14.9742L15.6516 75.0857L37.9963 27.9476L55.2285 64.3005L55.906 65.7296H57.4875H62.937H66.9347L65.1848 62.1353L40.2441 10.9057Z" fill="black" stroke="white" stroke-width="5" stroke-miterlimit="5.71073"/>
<rect id="Rectangle 20" x="59" y="64" width="9" height="5" fill="white"/>
<path id="Rectangle 21" d="M43.7259 10H40.4899L41.9371 12.8944L44.6334 18.287L45.1862 19.3926H46.4222H52.8259H56.062L54.6148 16.4982L51.9185 11.1056L51.3657 10H50.1296H43.7259Z" fill="#FFD700" stroke="white" stroke-width="4"/>
<path id="Rectangle 22" d="M29.2333 51.2926H27.5983L26.943 52.7906L24.5837 58.1831L23.0515 61.6852H26.8741H49.1185H52.9411L51.4089 58.1831L49.0497 52.7906L48.3943 51.2926H46.7593H29.2333Z" fill="#FFD700" stroke="white" stroke-width="5"/>
</g>
</svg>
